<?xml version="1.0" encoding="utf-8"?>
<!-- Generator: Adobe Illustrator 27.5.0, SVG Export Plug-In . SVG Version: 6.00 Build 0)  -->
<svg version="1.1" xmlns="http://www.w3.org/2000/svg" xmlns:xlink="http://www.w3.org/1999/xlink" x="0px" y="0px"
	 viewBox="0 0 2200 2200" style="enable-background:new 0 0 2200 2200;" xml:space="preserve">
<g id="Background">
	<g>
		<rect style="fill:#222330;" width="2200" height="2200"/>
	</g>
</g>
<g id="Objects">
	<g>
		<path style="fill:#FFFFFF;" d="M1598.145,800c-5.678-79.608-34.738-156.331-82.422-220.258
			c-47.895-64.21-113.924-114.127-187.91-144.538c-9.346-3.841-18.819-7.357-28.391-10.592
			c-63.584-21.829-131.8-31.247-198.932-30.729c-4.313,0.033-8.625,0.117-12.936,0.243c-1.027-0.261-2.092-0.507-4.573,0.148
			c-57.469,2.118-114.578,12.52-168.74,32.026c-8.103,2.918-16.127,6.063-24.065,9.412c-1.609-0.016-3.987,0.866-10.835,4.729
			c-44.51,20.078-86.011,46.913-122.31,79.563c-43.465,39.096-79.752,85.895-106.828,137.697
			c-26.651,50.989-44.246,107.005-48.49,164.521c-0.528,7.159-0.814,14.326-0.966,21.502c-0.057,2.662,5.454,3.044,6.969,3.044
			c26.14,0,52.281,0,78.421,0c41.616,0,83.231,0,124.847,0c9.486,0,18.972,0,28.458,0c5.181,0,16.253-2.472,16.213-9.256
			c-0.129-22.29,7.372-45.572,16.018-65.889c8.617-20.249,20.242-39.145,34.073-56.247c23.989-29.661,54.783-52.96,89.822-67.473
			c1.988,0.349,5.025-0.084,16.881-6.203c1.287-0.414,2.577-0.818,3.874-1.208c49.181-14.822,102.902-15.215,153.325-6.874
			c47.922,7.927,94.622,27.442,130.293,60.99c32.292,30.371,54.022,70.978,60.904,114.813c3.991,25.423,3.537,51.877-2.536,76.936
			c-5.254,21.68-16.204,41.173-30.285,58.335c-30.369,37.015-72.651,63.298-112.38,89.05
			c-44.599,28.909-89.757,57.279-130.258,91.885c-38.353,32.77-72.229,71.078-94.714,116.534
			c-23.725,47.964-33.423,100.783-35.816,153.904c-0.627,13.92-0.804,27.857-0.749,41.789c0.011,2.673,5.396,3.044,6.969,3.044
			c22.402,0,44.805,0,67.207,0c35.76,0,71.521,0,107.281,0c8.28,0,16.559,0,24.839,0c5.322,0,16.078-2.464,16.214-9.256
			c0.491-24.668,1.325-49.69,7.261-73.756c2.816-11.418,6.786-22.699,13.056-32.701c6.24-9.953,14.102-18.784,22.595-26.859
			c38.086-36.218,85.208-62.196,129.505-89.879c40.064-25.037,79.869-51.202,115.198-82.724
			c30.034-26.796,57.086-57.207,78.539-91.333C1586.804,964.345,1604.004,882.135,1598.145,800z M1559.513,950.785
			c-11.159,4.492-35.207,17.034-91.483,50.232c-54.371,32.074-126.236,75.996-195.735,118.472
			c-67.726,41.393-137.758,84.194-191.479,115.958c-32.69,19.328-54.674,31.78-69.434,39.74
			c14.522-10.834,37.38-27.083,73.153-51.438c56-38.125,130.447-87.217,202.444-134.692
			c75.42-49.732,153.406-101.158,210.385-140.106c30.729-21.005,53.089-36.823,68.358-48.356c2.183-1.649,4.205-3.199,6.083-4.661
			C1569.065,914.506,1564.982,932.857,1559.513,950.785z M1425.477,1120.005c-49.105,34.224-114.303,78.258-177.354,120.841
			c-66.208,44.716-134.669,90.954-184.687,125.961c-26.982,18.885-46.616,33.101-60.024,43.462
			c-7.479,5.779-12.883,10.25-16.521,13.666c-1.337,1.256-3.03,2.855-4.383,4.665c-1.742,0-3.483,0-5.225,0
			c-0.012-17.094,0.454-34.23,1.692-51.286c11.25-4.837,34.051-16.966,83.536-46.159c50.785-29.959,117.908-70.982,182.82-110.655
			c63.158-38.6,128.466-78.515,178.604-108.163c28.154-16.648,47.816-27.843,61.523-35.323
			C1472.616,1086.664,1453.579,1100.419,1425.477,1120.005z M981.427,1351.974c2.22-18.094,5.495-36.025,10.174-53.645
			c11.277-4.585,35.386-17.193,91.211-50.126c54.372-32.075,126.239-75.998,195.74-118.476
			c67.725-41.391,137.754-84.191,191.475-115.954c32.674-19.319,54.657-31.771,69.415-39.73
			c-14.464,10.793-37.196,26.963-72.711,51.16c-55.749,37.982-129.859,86.891-201.53,134.188
			c-75.082,49.549-152.72,100.784-209.442,139.588c-30.592,20.927-52.852,36.686-68.053,48.176
			C985.443,1348.865,983.36,1350.465,981.427,1351.974z M1490.013,917.038c-51.345,30.29-119.209,71.766-184.839,111.877
			c-63.874,39.038-129.923,79.405-180.623,109.385c-28.832,17.049-48.854,28.441-62.734,36.002
			c13.451-10.067,33.74-24.631,64.203-45.68c51.463-35.558,119.821-81.32,185.929-125.575
			c69.357-46.432,141.077-94.444,193.476-130.799c28.263-19.609,48.829-34.374,62.874-45.135c2.772-2.124,5.259-4.07,7.5-5.866
			c0.608,16.353,0.271,32.754-1.063,49.066C1563.425,875.138,1540.337,887.351,1490.013,917.038z M1515.095,619.695
			c-12.25,6.622-35.57,20.603-82.54,49.311c-22.033,13.466-47.228,28.865-65.585,39.638c15.029-15.614,36.408-37.039,55.09-55.76
			c18.901-18.941,38.446-38.528,52.713-53.293c6.575-6.806,11.612-12.154,15.336-16.28
			C1499.087,595.002,1507.426,607.151,1515.095,619.695z M1508.906,651.595c6.509-6.543,11.598-11.781,15.477-15.923
			c7.04,12.754,13.41,25.868,19.074,39.283c-12.214,6.538-35.823,20.657-84.261,50.261c-21.979,13.433-47.063,28.764-65.57,39.643
			c16.063-16.216,38.982-38.521,59.003-58.005C1472.807,687.215,1493.672,666.908,1508.906,651.595z M1550.445,692.624
			c5.109,13.831,9.484,27.938,13.093,42.26c-12.518,6.595-37.575,21.56-91.244,54.361c-23.42,14.313-50.137,30.643-69.888,42.254
			c18.197-17.473,44.461-41.743,67.372-62.914c22.798-21.067,46.371-42.851,63.584-59.285
			C1540.484,702.502,1546.117,697.003,1550.445,692.624z M1465.455,735.455c21.041-12.86,44.93-27.46,63.169-38.229
			c-18.182,17.444-44.239,41.523-66.989,62.546c-22.798,21.067-46.371,42.851-63.584,59.285c-4.411,4.212-8.247,7.92-11.562,11.179
			c-0.148-4.297-0.398-8.577-0.76-12.819c-0.902-10.586-2.679-21.059-5.251-31.323
			C1392.478,779.731,1416.056,765.646,1465.455,735.455z M1377.843,895.33c4.547-13.081,7.092-26.877,8.169-40.806
			c12.055-6.221,36.941-21.059,92.54-55.039c21.201-12.958,45.104-27.566,64.095-38.832c-23.813,20.741-58.713,49.911-89.111,75.318
			c-27.674,23.131-56.218,46.989-78.14,65.825C1376.26,899.661,1377.086,897.51,1377.843,895.33z M1461.232,845.178
			c29.718-24.839,60.447-50.523,82.891-69.917c10.139-8.761,17.963-15.696,23.782-21.079c1.717,8.528,3.179,17.116,4.349,25.757
			c0.899,6.642,1.628,13.315,2.215,20.004c-6.429,3.271-16.427,8.88-32.51,18.367c-22.956,13.542-53.279,32.075-82.604,49.997
			c-30.055,18.368-64.493,39.416-89.074,53.794C1394.112,901.278,1430.041,871.248,1461.232,845.178z M1477.457,567.622
			c0.412,0.486,0.813,0.98,1.223,1.467c-12.741,6.901-36.884,21.358-85.138,50.849c-23.331,14.26-50.085,30.611-69.187,41.791
			c14.87-15.53,36.088-36.9,54.619-55.563c18.697-18.831,38.031-38.303,52.145-52.982c7.199-7.488,12.529-13.196,16.298-17.449
			C1457.943,545.821,1467.98,556.454,1477.457,567.622z M1301.256,668.999c-13.913-10.181-28.978-18.732-44.76-25.769
			c14.386-7.947,40.638-23.682,90.575-54.202c26.666-16.297,57.411-35.087,78.407-47.299
			c-14.889,15.564-36.322,37.151-55.021,55.982c-18.696,18.83-38.029,38.301-52.142,52.98c-7.643,7.949-13.202,13.914-16.998,18.237
			C1301.298,668.952,1301.278,668.975,1301.256,668.999z M873.661,729.65c-10.17,4.925-32.571,18.238-87.967,52.095
			c-10.559,6.453-21.848,13.353-32.755,19.97c11.722-8.298,26.042-18.257,43.516-30.202c27.575-18.852,59.733-40.44,93.849-63.177
			C884.398,715.147,878.838,722.265,873.661,729.65z M1005.864,631.667c69.861-46.267,140.859-93.352,193.492-129.481
			c29.996-20.59,51.823-36.095,66.729-47.399c8.304-6.297,14.3-11.167,18.333-14.889c0.799-0.737,1.682-1.557,2.552-2.438
			c9.231,3.265,18.347,6.825,27.333,10.667c-8.634,4.552-21.376,11.75-40.526,23.046c-31.223,18.419-72.479,43.633-112.376,68.017
			C1102.932,574.926,1032.382,618.043,1005.864,631.667z M1330.441,460.062c1.091-1.139,2.102-2.199,3.035-3.206
			c15.901,7.683,31.333,16.281,46.2,25.756c-6.292,3.395-15.034,8.38-27.387,15.667c-22.832,13.469-52.991,31.902-82.157,49.728
			c-31.949,19.526-68.881,42.098-93.496,56.359c18.335-17.61,45.442-42.601,69.021-64.338
			c22.928-21.138,46.636-42.995,63.947-59.484C1318.97,471.62,1325.787,464.921,1330.441,460.062z M1394.906,494.171
			c0.266-0.295,0.523-0.581,0.78-0.867c13.245,9.27,25.981,19.267,38.135,29.955c-13.795,7.467-40.12,23.208-93.007,55.531
			c-26.249,16.042-56.454,34.503-77.42,46.725c15.769-16.074,38.509-38.399,58.345-57.873c19.786-19.424,40.245-39.51,55.181-54.655
			C1385.006,504.786,1390.889,498.632,1394.906,494.171z M1263.369,429.674c-15.842,7.755-43.498,22.936-93.113,52.205
			c-62.154,36.666-144.313,86.879-223.767,135.439c-77.647,47.456-157.939,96.528-219.438,132.881
			c-42.531,25.141-69.194,40.084-85.854,48.85c13.956-10.524,36.388-26.601,72.217-51.136
			c54.12-37.061,126.045-84.773,195.601-130.915c72.909-48.365,148.299-98.376,203.38-136.25
			c29.707-20.427,51.324-35.808,66.086-47.022c8.225-6.248,14.164-11.079,18.159-14.771c1.223-1.13,2.725-2.527,4.046-4.093
			c18.895,3.294,37.579,7.539,55.882,12.797C1258.842,428.311,1261.108,428.986,1263.369,429.674z M638.997,739.935
			c10.988-4.476,34.37-16.705,88.217-48.47c52.603-31.031,122.13-73.524,189.368-114.619
			c65.474-40.015,133.176-81.393,185.131-112.114c30.423-17.988,51.266-29.825,65.522-37.559
			c-14.103,10.524-35.859,26.045-69.251,48.911c-54.12,37.061-126.044,84.773-195.601,130.915
			c-72.909,48.365-148.299,98.376-203.38,136.25c-29.707,20.427-51.324,35.808-66.086,47.022c-1.966,1.494-3.794,2.901-5.503,4.237
			C629.985,776.084,633.895,757.842,638.997,739.935z M1172.733,410.7c-14.14,7.257-36.624,19.805-73.041,41.288
			c-52.603,31.031-122.13,73.524-189.368,114.619C844.85,606.622,777.148,648,725.193,678.721
			c-30.677,18.139-51.614,30.023-65.879,37.752c11.021-8.454,26.801-20.15,49.33-36.327
			c42.301-30.374,98.381-69.419,152.614-107.178c57.107-39.759,116.159-80.873,159.3-111.986
			c23.279-16.789,40.22-29.424,51.789-38.627c9.241-7.351,15.01-12.308,17.948-16.188
			C1117.722,405.84,1145.363,407.306,1172.733,410.7z M1055.254,407.589c-10.018,5.507-23.375,13.151-41.325,23.74
			c-38.51,22.718-89.401,53.821-138.616,83.9c-64.153,39.208-140.038,85.587-179.205,107.273
			c21.873-19.815,57.513-50.433,88.192-76.79c27.516-23.639,55.968-48.082,76.747-66.535c11.236-9.978,19.412-17.473,24.997-22.914
			c4.146-4.04,7.509-7.325,9.215-10.327c1.212-0.526,2.424-1.053,3.641-1.568C948.469,423.395,1001.611,411.424,1055.254,407.589z
			 M757.914,539.711c14.849-14.799,30.688-28.564,47.388-41.169c5.632-2.752,16.989-9.562,42.969-25.44
			c1.599-0.977,3.252-1.987,4.94-3.019c-21.672,19.226-50.952,44.381-76.73,66.527c-21.894,18.809-44.367,38.117-63.11,54.521
			C726.989,572.924,741.882,555.69,757.914,539.711z M662.552,676.431c4.937-10.75,10.325-21.316,16.088-31.688
			c8.581-3.564,25.997-12.77,64.322-35.378c38.507-22.716,89.396-53.818,138.609-83.896
			c59.181-36.169,128.339-78.438,169.455-101.799c-10.616,8.033-24.878,18.537-44.005,32.271
			c-42.302,30.375-98.384,69.42-152.619,107.18c-57.105,39.759-116.155,80.871-159.296,111.983
			c-19.734,14.232-34.897,25.469-46.11,34.171C653.085,698.143,657.615,687.181,662.552,676.431z M645.418,834.469
			c-7.134,0-14.268,0-21.402,0c0.141-4.736,0.376-9.468,0.704-14.192c12.655-5.136,40.095-19.427,104.258-57.278
			c62.156-36.667,144.315-86.881,223.771-135.441c77.646-47.456,157.937-96.526,219.434-132.878
			c42.552-25.153,69.217-40.097,85.874-48.861c-14.073,10.605-36.774,26.855-73.149,51.722
			c-54.651,37.362-127.29,85.464-197.537,131.983c-73.62,48.753-149.746,99.165-205.364,137.343
			c-29.997,20.591-51.825,36.096-66.73,47.4c-8.303,6.297-14.3,11.167-18.333,14.889c-1.613,1.488-3.568,3.3-5.052,5.314
			C676.398,834.469,660.908,834.469,645.418,834.469z M770.265,834.469c-16.259,0-32.518,0-48.777,0
			c13.907-8.068,35.678-21.224,70.465-42.485c23.219-14.191,49.955-30.531,68.446-41.307c-6.515,11.568-12.085,23.657-16.571,36.15
			c-7.238,11.913-14.535,23.945-19.961,33.176c-3.985,6.78-6.58,11.288-8.157,14.466
			C800.561,834.469,785.413,834.469,770.265,834.469z M1047.96,621.75c2.332-1.365,4.772-2.799,7.327-4.306
			c31.223-18.418,72.477-43.631,112.372-68.015c49.762-30.413,108.275-66.175,140.951-84.553
			c-18.321,17.681-46.607,43.759-71.088,66.328c-22.928,21.138-46.636,42.995-63.946,59.484
			c-9.367,8.922-16.184,15.622-20.838,20.481c-2.243,2.342-4.178,4.369-5.671,6.219c-8.454-0.603-16.915-0.971-25.343-1.15
			C1096.998,615.714,1072.289,617.422,1047.96,621.75z M1173.29,620.086c5.495-3.084,12.34-7.039,20.942-12.113
			c22.832-13.469,52.991-31.902,82.158-49.728c33.089-20.223,71.523-43.713,96.084-57.854
			c-15.792,16.129-38.968,38.881-59.142,58.687c-19.786,19.424-40.245,39.51-55.181,54.655c-8.087,8.2-13.97,14.354-17.986,18.815
			c-0.962,1.069-1.863,2.072-2.694,3.032c-11.82-4.254-23.925-7.736-36.149-10.487
			C1192.079,623.013,1182.715,621.372,1173.29,620.086z M1315.648,680.49c12.988-7.103,37.117-21.566,84.152-50.313
			c23.258-14.214,49.912-30.504,69.003-41.683c-15.036,15.626-36.496,37.131-55.237,55.913
			c-18.902,18.943-38.449,38.531-52.717,53.298c-6.272,6.491-11.135,11.648-14.804,15.693c-4.812-6.503-9.998-12.736-15.549-18.642
			C1325.771,689.731,1320.808,684.985,1315.648,680.49z M1356.271,728.556c12.246-6.619,35.563-20.599,82.542-49.311
			c21.557-13.175,46.142-28.2,64.387-38.934c-16.06,16.21-38.945,38.483-58.94,57.943c-20.179,19.64-41.046,39.947-56.279,55.261
			c-5.333,5.36-9.712,9.844-13.259,13.572C1369.921,753.657,1363.723,740.73,1356.271,728.556z M1220.969,1045.484
			c42.459-27.416,86.972-54.746,121.269-92.43c1.132-1.244,2.246-2.506,3.349-3.778c5.85-2.597,16.481-8.38,37.421-20.733
			c22.956-13.542,53.279-32.075,82.604-49.997c23.61-14.43,49.927-30.513,72.044-43.718c-11.974,8.63-27.174,19.351-46.451,32.67
			c-51.464,35.558-119.823,81.321-185.932,125.578c-69.356,46.431-141.075,94.442-193.472,130.797
			c-4.239,2.941-8.284,5.76-12.18,8.485C1137.199,1099.595,1179.146,1072.489,1220.969,1045.484z M1038.049,1199.275
			c9.632-3.487,31.737-14.733,88.541-48.242c51.347-30.289,119.212-71.767,184.843-111.878
			c63.873-39.038,129.92-79.404,180.62-109.384c28.914-17.098,48.967-28.504,62.851-36.065
			c-14.567,10.829-37.179,26.879-72.086,50.643c-55.999,38.124-130.447,87.216-202.443,134.691
			c-75.42,49.732-153.407,101.158-210.386,140.106c-30.729,21.005-53.089,36.823-68.358,48.356c-0.096,0.073-0.183,0.14-0.279,0.212
			c0.255-0.678,0.501-1.359,0.76-2.036C1011.234,1241.883,1023.465,1219.764,1038.049,1199.275z M1012.353,1428.6
			c15.279-8.806,39.904-23.664,80.504-48.477c26.714-16.327,57.608-35.208,78.223-47.16c-2.211,4.257-4.115,8.642-5.772,13.119
			c-5.991,8.308-12.461,17.193-18.43,25.39c-10.422,14.311-21.197,29.108-29.049,40.245c-5.744,8.147-9.329,13.313-11.377,16.884
			c-1.338,0-2.675,0-4.013,0C1072.41,1428.6,1042.382,1428.6,1012.353,1428.6z M1154.844,1401.531
			c-4.416,2.59-10.669,6.395-19.73,11.934c-2.126,1.3-4.418,2.7-6.734,4.11c8.061-11.387,18.762-26.081,28.198-39.04
			c0.306-0.419,0.612-0.84,0.918-1.26C1156.24,1385.343,1155.423,1393.478,1154.844,1401.531z M1133.348,1428.6
			c2.401-1.461,5.054-3.08,8.024-4.895c3.96-2.421,8.491-5.189,12.687-7.721c-0.172,4.204-0.316,8.409-0.421,12.616
			C1146.874,1428.6,1140.111,1428.6,1133.348,1428.6z M1220.18,1278.619c-12.241,9.83-24.432,20.556-34.592,32.796
			c-10.486,4.865-34.751,19.208-98.989,58.469c-15.409,9.417-32.206,19.683-47.62,28.979c10.428-7.516,23.103-16.495,38.504-27.229
			c49.106-34.225,114.305-78.259,177.356-120.844c66.207-44.715,134.667-90.952,184.684-125.958
			c5.863-4.103,11.358-7.973,16.539-11.644c-31.162,29.385-66.185,54.131-102.189,77.222
			C1309.016,1219.179,1261.835,1245.168,1220.18,1278.619z M1531.303,1017.535c-6.562,11.795-13.798,23.205-21.601,34.218
			c-9.371,3.321-31.02,14.353-87.814,47.856c-50.782,29.958-117.902,70.98-182.813,110.651
			c-63.159,38.602-128.47,78.518-178.61,108.167c-28.217,16.687-47.899,27.892-61.612,35.372
			c14.514-10.785,36.946-26.711,71.436-50.209c55.746-37.981,129.855-86.888,201.523-134.184
			c75.084-49.55,152.725-100.787,209.449-139.592c29.862-20.428,51.766-35.919,66.934-47.335
			C1543.25,994.452,1537.63,1006.161,1531.303,1017.535z"/>
		<path style="fill:#FFFFFF;" d="M1176.615,1791.561c0-4.826,0-9.651,0-14.477c0-7.166,0-14.331,0-21.497c0-8.705,0-17.41,0-26.115
			c0-9.575,0-19.151,0-28.726c0-9.624,0-19.248,0-28.873c0-8.976,0-17.952,0-26.927c0-7.619,0-15.238,0-22.857
			c0-5.475,0-10.951,0-16.427c0-2.548,0.214-5.203,0-7.745c-0.009-0.11,0-0.224,0-0.334c0-1.434-3.489-1.913-4.151-1.913
			c-1.783,0-3.566,0-5.349,0c-4.826,0-9.651,0-14.477,0c-7.166,0-14.331,0-21.497,0c-8.705,0-17.41,0-26.115,0
			c-1.991,0-3.982,0-5.973,0c-0.582-0.39-1.23-0.688-1.933-0.867c-1.345-0.343-2.337-0.594-5.747,0.867c-5.024,0-10.049,0-15.073,0
			c-9.624,0-19.248,0-28.872,0c-8.976,0-17.952,0-26.928,0c-7.619,0-15.238,0-22.857,0c-5.476,0-10.951,0-16.427,0
			c-2.084,0-4.169,0-6.253,0c-0.538-0.346-1.13-0.61-1.761-0.771c-2.012-0.515-3.309-0.089-5.554,1.204
			c-2.518,0.403-4.977,1.095-7.395,2.134c-2.252,0.968-6.148,2.628-6.148,5.557c0,1.783,0,3.566,0,5.349c0,4.826,0,9.651,0,14.477
			c0,7.166,0,14.331,0,21.497c0,8.705,0,17.41,0,26.115c0,9.575,0,19.151,0,28.726c0,9.624,0,19.248,0,28.872
			c0,8.976,0,17.952,0,26.927c0,7.619,0,15.238,0,22.857c0,5.475,0,10.951,0,16.427c0,2.548-0.214,5.203,0,7.745
			c0.009,0.11,0,0.224,0,0.334c0,1.434,3.489,1.913,4.151,1.913c1.783,0,3.566,0,5.349,0c4.826,0,9.651,0,14.477,0
			c5.718,0,11.435,0,17.153,0c0.595,0.403,1.26,0.711,1.982,0.895c0.487,0.124,0.969,0.215,1.547,0.215
			c0.994,0,2.274-0.272,4.344-1.109c7.529,0,15.057,0,22.586,0c9.575,0,19.151,0,28.726,0c9.624,0,19.248,0,28.872,0
			c8.976,0,17.952,0,26.927,0c3.037,0,6.075,0,9.112,0c0.553,0.359,1.16,0.635,1.802,0.799c1.506,0.384,2.313,0.584,5.181-0.799
			c2.254,0,4.508,0,6.762,0c5.475,0,10.951,0,16.427,0c2.582,0,5.163,0,7.745,0c0.111,0,0.223,0,0.334,0
			c2.723,0.234,5.912-0.288,8.509-1.027c1.182-0.317,2.482-0.719,3.755-1.212c1.47-0.56,2.891-1.242,4.128-2.153
			c0.96-0.707,3.253-2.241,2.639-3.732C1176.615,1795.127,1176.615,1793.344,1176.615,1791.561z M1134.492,1786.388
			c4.157-9.214,9.788-21.29,14.741-31.912c1.398-2.997,2.807-6.02,4.199-9.011c0,3.431,0,6.863,0,10.294c0,6.369,0,12.738,0,19.107
			c-3.187,1.905-7.318,4.426-12.773,7.76C1138.724,1783.808,1136.605,1785.103,1134.492,1786.388z M1153.432,1702.265
			c-10.743,5.699-31.587,18.17-74.794,44.577c-17.563,10.733-37.388,22.85-53.077,32.155c16.563-16.469,39.925-38.89,60.364-58.505
			c20.839-19.998,42.387-40.678,58.119-56.273c3.526-3.495,6.632-6.61,9.388-9.41c0,5.475,0,10.949,0,16.424
			c0,9.575,0,19.151,0,28.726C1153.432,1700.728,1153.432,1701.496,1153.432,1702.265z M1110.221,1605.707
			c7.619,0,15.238,0,22.857,0c5.475,0,10.951,0,16.427,0c1.308,0,2.618,0.016,3.928,0.024c0,1.138,0,2.275,0,3.413
			c0,4.826,0,9.651,0,14.477c0,2.282,0,4.563,0,6.845c-12.041,6.243-36.702,20.95-91.199,54.256
			c-25.43,15.542-54.795,33.489-74.64,45.016c12.944-14.424,31.414-34.28,47.543-51.618c16.3-17.522,33.154-35.642,45.453-49.294
			c6.664-7.397,11.512-12.947,14.819-16.967c1.9-2.308,3.54-4.308,4.691-6.151
			C1103.474,1605.707,1106.847,1605.707,1110.221,1605.707z M977.288,1700.746c0-7.855,0-15.71,0-23.565
			c9.023-4.944,25.389-14.759,56.585-33.824c12.649-7.731,26.815-16.39,38.541-23.383c-12.848,14.264-30.539,33.282-46.063,49.972
			c-16.3,17.522-33.154,35.641-45.453,49.294c-1.276,1.416-2.465,2.744-3.609,4.027
			C977.288,1715.76,977.288,1708.253,977.288,1700.746z M999.58,1605.707c8.705,0,17.41,0,26.115,0c9.575,0,19.151,0,28.726,0
			c6.189,0,12.377,0,18.566,0c-9.852,5.787-24.195,14.467-45.373,27.41c-17.319,10.585-37.48,22.907-50.326,30.316
			c0-6.162,0-12.325,0-18.488c0-7.619,0-15.238,0-22.857c0-3.859,0-7.718,0-11.576c0.153-1.895,0.27-3.485,0.351-4.805
			c0.148,0,0.296,0,0.445,0C985.249,1605.707,992.414,1605.707,999.58,1605.707z M977.288,1794.973c0-1.138,0-2.275,0-3.413
			c0-4.826,0-9.651,0-14.477c0-7.166,0-14.331,0-21.497c0-2.122,0-4.244,0-6.366c12.039-6.241,36.698-20.948,91.204-54.26
			c23.677-14.47,50.768-31.027,70.406-42.545c-16.608,16.547-40.463,39.44-61.282,59.42c-20.839,19.998-42.387,40.678-58.119,56.273
			c-8.516,8.442-14.712,14.779-18.942,19.374c-2.63,2.856-4.867,5.286-6.318,7.515c-4.34,0-8.681,0-13.021,0
			C979.908,1794.998,978.598,1794.981,977.288,1794.973z M1105.025,1794.998c-9.575,0-19.151,0-28.726,0c-9.624,0-19.248,0-28.872,0
			c-8.482,0-16.964,0-25.447,0c12.506-7.246,31.975-19.007,62.916-37.917c24.096-14.727,52.442-32.05,68.536-41.156
			c0,0.275,0,0.55,0,0.825c-4.185,9.301-9.985,21.74-15.075,32.655c-5.386,11.55-10.955,23.494-14.992,32.471
			c-2.788,6.199-4.583,10.275-5.641,13.122C1113.491,1794.998,1109.258,1794.998,1105.025,1794.998z M1143.425,1794.998
			c1.104-0.674,2.259-1.38,3.493-2.134c2.041-1.247,4.286-2.619,6.515-3.973c0,2.036,0,4.072,0,6.107c-0.265,0-0.53,0-0.795,0
			C1149.566,1794.998,1146.495,1794.998,1143.425,1794.998z"/>
	</g>
</g>
</svg>
